<?xml version="1.0" encoding="UTF-8" standalone="no"?>
<svg
   xmlns:dc="http://purl.org/dc/elements/1.1/"
   xmlns:cc="http://creativecommons.org/ns#"
   xmlns:rdf="http://www.w3.org/1999/02/22-rdf-syntax-ns#"
   xmlns:svg="http://www.w3.org/2000/svg"
   xmlns="http://www.w3.org/2000/svg"
   xmlns:sodipodi="http://sodipodi.sourceforge.net/DTD/sodipodi-0.dtd"
   xmlns:inkscape="http://www.inkscape.org/namespaces/inkscape"
   id="Layer_1"
   data-name="Layer 1"
   viewBox="0 0 622 682"
   version="1.1"
   sodipodi:docname="community_gitlab.svg"
   inkscape:version="0.92.1 r15371">
  <sodipodi:namedview
     pagecolor="#ffffff"
     bordercolor="#666666"
     borderopacity="1"
     objecttolerance="10"
     gridtolerance="10"
     guidetolerance="10"
     inkscape:pageopacity="0"
     inkscape:pageshadow="2"
     inkscape:window-width="1920"
     inkscape:window-height="1137"
     id="namedview24"
     showgrid="false"
     inkscape:zoom="0.97875191"
     inkscape:cx="464.77963"
     inkscape:cy="428.5962"
     inkscape:window-x="-8"
     inkscape:window-y="-8"
     inkscape:window-maximized="1"
     inkscape:current-layer="Layer_1" />
  <metadata
     id="metadata26">
    <rdf:RDF>
      <cc:Work
         rdf:about="">
        <dc:format>image/svg+xml</dc:format>
        <dc:type
           rdf:resource="http://purl.org/dc/dcmitype/StillImage" />
      </cc:Work>
    </rdf:RDF>
  </metadata>
  <defs
     id="defs4">
    <style
       id="style2">.cls-1{fill:#5c5c5c;}.cls-2{fill:#a1a1a1;}.cls-3{fill:#787878;}</style>
  </defs>
  <title
     id="title6">stacked_wm_grayscale</title>
  <g
     transform="translate(17.338983,63.576271)"
     id="g36">
    <g
       transform="matrix(1.3756945,0,0,1.436306,-136.76255,-58.287736)"
       id="g3716">
      <path
         d="m 525.05,266.61 -24,-74 L 453.36,46 a 8.19,8.19 0 0 0 -15.58,0 L 390.12,192.62 H 231.88 L 184.22,46 a 8.19,8.19 0 0 0 -15.58,0 L 121,192.62 l -24,74 a 16.38,16.38 0 0 0 6,18.31 L 311,436.09 519.1,284.92 a 16.38,16.38 0 0 0 6,-18.31"
         class="cls-2"
         id="path46"
         inkscape:connector-curvature="0"
         style="fill:#dddddd;opacity:1" />
      <path
         d="m 311,436.09 v 0 L 390.12,192.62 H 231.88 Z"
         class="cls-1"
         id="path50"
         inkscape:connector-curvature="0"
         style="fill:#7e7e7e;opacity:1" />
      <path
         d="M 311,436.09 231.88,192.62 H 121 Z"
         class="cls-3"
         id="path58"
         inkscape:connector-curvature="0"
         style="fill:#a4a4a4;opacity:1" />
      <path
         d="m 121,192.62 v 0 l -24,74 a 16.37,16.37 0 0 0 6,18.31 l 208,151.16 z"
         class="cls-2"
         id="path66"
         inkscape:connector-curvature="0"
         style="fill:#dddddd;opacity:1" />
      <path
         d="M 121,192.62 H 231.88 L 184.22,46 a 8.19,8.19 0 0 0 -15.58,0 z"
         class="cls-1"
         id="path74"
         inkscape:connector-curvature="0"
         style="fill:#7e7e7e;opacity:1" />
      <path
         d="M 311,436.09 390.12,192.62 H 501 Z"
         class="cls-3"
         id="path78"
         inkscape:connector-curvature="0"
         style="fill:#a4a4a4;opacity:1" />
      <path
         d="m 501,192.62 v 0 l 24,74 a 16.37,16.37 0 0 1 -6,18.31 L 311,436.09 Z"
         class="cls-2"
         id="path82"
         inkscape:connector-curvature="0"
         style="fill:#dddddd;opacity:1" />
      <path
         d="M 501,192.62 H 390.12 L 437.78,46 a 8.19,8.19 0 0 1 15.58,0 z"
         class="cls-1"
         id="path86"
         inkscape:connector-curvature="0"
         style="fill:#7e7e7e;opacity:1" />
    </g>
  </g>
</svg>
